<mxfile host="Electron" modified="2024-05-08T10:11:43.550Z" agent="Mozilla/5.0 (X11; Linux x86_64) AppleWebKit/537.36 (KHTML, like Gecko) draw.io/24.2.5 Chrome/120.0.6099.109 Electron/28.1.0 Safari/537.36" etag="XBsktHwf6Px1VH7B2AzA" version="24.2.5" type="device">
  <diagram name="第 1 页" id="nbugYtbM5B65um6sW1Ss">
    <mxGraphModel dx="954" dy="663" grid="1" gridSize="10" guides="1" tooltips="1" connect="1" arrows="1" fold="1" page="1" pageScale="1" pageWidth="827" pageHeight="1169" math="0" shadow="0">
      <root>
        <mxCell id="0" />
        <mxCell id="1" parent="0" />
        <mxCell id="YTQBSkUIa9Nu40MfwvIU-2" value="" style="pointerEvents=1;verticalLabelPosition=bottom;shadow=0;dashed=0;align=center;html=1;verticalAlign=top;shape=mxgraph.electrical.resistors.resistor_2;rotation=90;" vertex="1" parent="1">
          <mxGeometry x="232.5" y="270" width="100" height="20" as="geometry" />
        </mxCell>
        <mxCell id="YTQBSkUIa9Nu40MfwvIU-3" value="" style="pointerEvents=1;verticalLabelPosition=bottom;shadow=0;dashed=0;align=center;html=1;verticalAlign=top;shape=mxgraph.electrical.signal_sources.signal_ground;" vertex="1" parent="1">
          <mxGeometry x="260" y="330" width="45" height="30" as="geometry" />
        </mxCell>
        <mxCell id="YTQBSkUIa9Nu40MfwvIU-4" value="V&lt;sub&gt;dd&lt;/sub&gt;" style="verticalLabelPosition=top;verticalAlign=bottom;shape=mxgraph.electrical.signal_sources.vdd;shadow=0;dashed=0;align=center;strokeWidth=1;fontSize=24;html=1;flipV=1;" vertex="1" parent="1">
          <mxGeometry x="252.5" y="110" width="60" height="40" as="geometry" />
        </mxCell>
        <mxCell id="YTQBSkUIa9Nu40MfwvIU-5" value="" style="endArrow=none;html=1;strokeWidth=1;rounded=0;" edge="1" parent="1">
          <mxGeometry width="100" relative="1" as="geometry">
            <mxPoint x="322.5" y="230" as="sourcePoint" />
            <mxPoint x="332.5" y="230" as="targetPoint" />
          </mxGeometry>
        </mxCell>
        <mxCell id="YTQBSkUIa9Nu40MfwvIU-6" value="" style="verticalLabelPosition=bottom;shadow=0;dashed=0;align=center;html=1;verticalAlign=top;strokeWidth=1;shape=ellipse;" vertex="1" parent="1">
          <mxGeometry x="327.5" y="225" width="10" height="10" as="geometry" />
        </mxCell>
        <mxCell id="YTQBSkUIa9Nu40MfwvIU-7" value="" style="endArrow=none;html=1;strokeWidth=1;rounded=0;" edge="1" parent="1" target="YTQBSkUIa9Nu40MfwvIU-8">
          <mxGeometry width="100" relative="1" as="geometry">
            <mxPoint x="282.5" y="230" as="sourcePoint" />
            <mxPoint x="332.5" y="230" as="targetPoint" />
          </mxGeometry>
        </mxCell>
        <mxCell id="YTQBSkUIa9Nu40MfwvIU-8" value="" style="shape=waypoint;sketch=0;fillStyle=solid;size=6;pointerEvents=1;points=[];fillColor=none;resizable=0;rotatable=0;perimeter=centerPerimeter;snapToPoint=1;" vertex="1" parent="1">
          <mxGeometry x="272.5" y="220" width="20" height="20" as="geometry" />
        </mxCell>
        <mxCell id="YTQBSkUIa9Nu40MfwvIU-11" value="" style="endArrow=none;html=1;strokeWidth=1;rounded=0;" edge="1" parent="1" source="YTQBSkUIa9Nu40MfwvIU-8">
          <mxGeometry width="100" relative="1" as="geometry">
            <mxPoint x="282.5" y="230" as="sourcePoint" />
            <mxPoint x="322.5" y="230" as="targetPoint" />
          </mxGeometry>
        </mxCell>
        <mxCell id="YTQBSkUIa9Nu40MfwvIU-13" value="&lt;font style=&quot;font-size: 20px;&quot;&gt;V&lt;/font&gt;&lt;font style=&quot;font-size: 16.6667px;&quot;&gt;out&lt;/font&gt;" style="text;html=1;align=center;verticalAlign=middle;whiteSpace=wrap;rounded=0;" vertex="1" parent="1">
          <mxGeometry x="320" y="235" width="60" height="30" as="geometry" />
        </mxCell>
        <mxCell id="YTQBSkUIa9Nu40MfwvIU-14" value="&lt;span style=&quot;font-size: 20px;&quot;&gt;R&lt;sub&gt;S&lt;/sub&gt;&lt;/span&gt;" style="text;html=1;align=center;verticalAlign=middle;whiteSpace=wrap;rounded=0;" vertex="1" parent="1">
          <mxGeometry x="222.5" y="265" width="60" height="30" as="geometry" />
        </mxCell>
        <mxCell id="YTQBSkUIa9Nu40MfwvIU-16" value="" style="verticalLabelPosition=bottom;shadow=0;dashed=0;align=center;html=1;verticalAlign=top;shape=mxgraph.electrical.transistors.nmos;pointerEvents=1;" vertex="1" parent="1">
          <mxGeometry x="222.5" y="140" width="60" height="100" as="geometry" />
        </mxCell>
        <mxCell id="YTQBSkUIa9Nu40MfwvIU-9" value="" style="verticalLabelPosition=bottom;shadow=0;dashed=0;align=center;html=1;verticalAlign=top;strokeWidth=1;shape=ellipse;" vertex="1" parent="1">
          <mxGeometry x="217.5" y="185" width="10" height="10" as="geometry" />
        </mxCell>
        <mxCell id="YTQBSkUIa9Nu40MfwvIU-17" value="&lt;font style=&quot;font-size: 20px;&quot;&gt;V&lt;/font&gt;&lt;font style=&quot;font-size: 16.6667px;&quot;&gt;in&lt;/font&gt;" style="text;html=1;align=center;verticalAlign=middle;whiteSpace=wrap;rounded=0;" vertex="1" parent="1">
          <mxGeometry x="190" y="155" width="60" height="30" as="geometry" />
        </mxCell>
      </root>
    </mxGraphModel>
  </diagram>
</mxfile>
